<?xml version="1.0" standalone="no"?>
<!DOCTYPE svg PUBLIC "-//W3C//DTD SVG 20010904//EN"
 "http://www.w3.org/TR/2001/REC-SVG-20010904/DTD/svg10.dtd">
<svg version="1.0" xmlns="http://www.w3.org/2000/svg"
 width="502.000000pt" height="502.000000pt" viewBox="0 0 502.000000 502.000000"
 preserveAspectRatio="xMidYMid meet">
<metadata>
Created by potrace 1.11, written by Peter Selinger 2001-2013
</metadata>
<g transform="translate(0.000000,502.000000) scale(0.100000,-0.100000)"
fill="#000000" stroke="none">
<path d="M2320 4674 c-348 -30 -550 -68 -817 -155 -396 -129 -728 -325 -994
-589 -262 -260 -420 -544 -485 -875 -27 -133 -24 -387 4 -521 65 -306 205
-565 436 -811 227 -242 592 -475 930 -594 l68 -24 -4 -73 c-6 -91 -50 -183
-143 -298 -70 -88 -238 -254 -339 -335 -36 -29 -66 -57 -66 -62 0 -15 352 -1
455 18 255 47 477 122 741 251 136 66 396 218 499 292 52 37 65 42 114 42 128
0 360 35 567 86 908 220 1553 791 1706 1508 28 134 31 388 4 521 -65 331 -223
615 -485 875 -402 399 -974 652 -1646 730 -95 11 -469 21 -545 14z m396 -1075
c245 -34 427 -151 513 -331 139 -292 29 -633 -250 -773 -140 -71 -294 -94
-635 -95 -151 0 -162 -1 -180 -21 -17 -19 -19 -41 -22 -245 l-3 -224 -155 0
-154 0 0 850 0 850 404 0 c236 0 437 -5 482 -11z"/>
<path d="M2183 3360 c-39 -16 -44 -69 -41 -380 3 -267 4 -289 22 -309 18 -20
28 -21 238 -21 249 0 323 11 409 63 108 65 155 166 147 316 -10 191 -113 297
-320 331 -77 12 -424 12 -455 0z"/>
</g>
</svg>
